<svg width="62" height="17" viewBox="0 0 62 17" fill="none" xmlns="http://www.w3.org/2000/svg">
<rect width="62" height="17" fill="#2E2D2D"/>
<rect width="1366" height="836" transform="translate(-141 -15)" fill="#D9E6F6"/>
<rect x="-141" y="-15" width="1366" height="48" fill="#5C9ECF"/>
<rect x="-13" y="-8" width="88" height="34" rx="17" fill="white"/>
<path d="M1.31714 15.5449H3.45486V8.27665H9.11474V15.5449H11.2525V1.06947H9.11474V6.42396H3.45486V1.06947H1.31714V15.5449ZM15.811 5.97605H13.8565V11.2491C13.8565 14.2826 15.241 15.7892 18.0913 15.7892C19.6386 15.7892 20.7584 15.3413 21.5728 14.2826C22.2853 13.3665 22.3261 12.4299 22.3261 11.2491V5.97605H20.3716V11.2084C20.3716 12.9593 19.5572 13.8755 18.071 13.8755C16.605 13.8755 15.811 12.9593 15.811 11.2084V5.97605ZM29.6802 7.64551C31.4311 7.64551 32.7545 8.94851 32.7545 10.7605C32.7545 12.5928 31.5126 13.8551 29.6802 13.8551C27.8886 13.8551 26.6264 12.6132 26.6264 10.8623C26.6264 8.96887 27.9293 7.64551 29.6802 7.64551ZM26.5856 7.03473V1.02875H24.6515V9.11138C24.6515 11.1066 24.8551 12.5928 25.5066 13.7126C26.2599 14.9952 27.7868 15.7892 29.6802 15.7892C31.024 15.7892 32.3066 15.2802 33.2635 14.3234C34.2204 13.3665 34.7293 12.0838 34.7293 10.7401C34.7293 9.39641 34.2204 8.13414 33.2635 7.17725C32.3269 6.24072 31.2072 5.79282 29.8838 5.79282C28.6216 5.79282 27.5425 6.17965 26.5856 7.03473ZM36.5865 15.5449H38.5206V11.1066C40.923 11.1473 42.1446 12.4707 42.1446 15.097C42.1446 15.2395 42.1242 15.382 42.1242 15.5449H44.0787C44.0787 15.4228 44.0787 15.321 44.0787 15.1988C44.0787 12.3078 43.0608 10.5569 40.9841 9.88503L44.0787 5.97605H41.7171L38.5206 10.0683V1.02875H36.5865V15.5449ZM47.7615 5.97605H45.807V11.2491C45.807 14.2826 47.1915 15.7892 50.0418 15.7892C51.5891 15.7892 52.7088 15.3413 53.5232 14.2826C54.2358 13.3665 54.2765 12.4299 54.2765 11.2491V5.97605H52.322V11.2084C52.322 12.9593 51.5076 13.8755 50.0214 13.8755C48.5555 13.8755 47.7615 12.9593 47.7615 11.2084V5.97605ZM56.0932 7.66587H57.0704V11.2491C57.0704 13.9772 58.5566 15.5042 61.2644 15.5449V13.5904C59.5949 13.4275 58.9842 12.5521 58.9842 10.679V7.66587H61.1422V5.97605H58.9842V3.71617H57.0704V5.97605H56.0932V7.66587Z" fill="#ED2590"/>
<path d="M1.31732 15.5449H0.706543V16.1557H1.31732V15.5449ZM3.45505 15.5449V16.1557H4.06582V15.5449H3.45505ZM3.45505 8.27665V7.66587H2.84427V8.27665H3.45505ZM9.11493 8.27665H9.72571V7.66587H9.11493V8.27665ZM9.11493 15.5449H8.50415V16.1557H9.11493V15.5449ZM11.2527 15.5449V16.1557H11.8634V15.5449H11.2527ZM11.2527 1.06947H11.8634V0.458687H11.2527V1.06947ZM9.11493 1.06947V0.458687H8.50415V1.06947H9.11493ZM9.11493 6.42396V7.03474H9.72571V6.42396H9.11493ZM3.45505 6.42396H2.84427V7.03474H3.45505V6.42396ZM3.45505 1.06947H4.06582V0.458687H3.45505V1.06947ZM1.31732 1.06947V0.458687H0.706543V1.06947H1.31732ZM1.31732 16.1557H3.45505V14.9341H1.31732V16.1557ZM4.06582 15.5449V8.27665H2.84427V15.5449H4.06582ZM3.45505 8.88743H9.11493V7.66587H3.45505V8.88743ZM8.50415 8.27665V15.5449H9.72571V8.27665H8.50415ZM9.11493 16.1557H11.2527V14.9341H9.11493V16.1557ZM11.8634 15.5449V1.06947H10.6419V15.5449H11.8634ZM11.2527 0.458687H9.11493V1.68024H11.2527V0.458687ZM8.50415 1.06947V6.42396H9.72571V1.06947H8.50415ZM9.11493 5.81318H3.45505V7.03474H9.11493V5.81318ZM4.06582 6.42396V1.06947H2.84427V6.42396H4.06582ZM3.45505 0.458687H1.31732V1.68024H3.45505V0.458687ZM0.706543 1.06947V15.5449H1.9281V1.06947H0.706543ZM15.8112 5.97605H16.422V5.36527H15.8112V5.97605ZM13.8567 5.97605V5.36527H13.2459V5.97605H13.8567ZM21.573 14.2826L21.0908 13.9077L21.0898 13.9089L21.0888 13.9102L21.573 14.2826ZM22.3262 5.97605H22.937V5.36527H22.3262V5.97605ZM20.3718 5.97605V5.36527H19.761V5.97605H20.3718ZM15.8112 5.36527H13.8567V6.58683H15.8112V5.36527ZM13.2459 5.97605V11.2491H14.4675V5.97605H13.2459ZM13.2459 11.2491C13.2459 12.8467 13.6093 14.1595 14.4578 15.0725C15.3144 15.9943 16.5631 16.4 18.0915 16.4V15.1784C16.7695 15.1784 15.9009 14.8309 15.3526 14.241C14.7963 13.6423 14.4675 12.685 14.4675 11.2491H13.2459ZM18.0915 16.4C19.7748 16.4 21.098 15.9019 22.0571 14.655L21.0888 13.9102C20.4192 14.7807 19.5026 15.1784 18.0915 15.1784V16.4ZM22.0551 14.6576C22.9075 13.5616 22.937 12.4293 22.937 11.2491H21.7155C21.7155 12.4306 21.6634 13.1714 21.0908 13.9077L22.0551 14.6576ZM22.937 11.2491V5.97605H21.7155V11.2491H22.937ZM22.3262 5.36527H20.3718V6.58683H22.3262V5.36527ZM19.761 5.97605V11.2084H20.9825V5.97605H19.761ZM19.761 11.2084C19.761 11.9995 19.5759 12.5008 19.3178 12.7978C19.072 13.0805 18.6844 13.2647 18.0712 13.2647V14.4862C18.944 14.4862 19.7066 14.2123 20.2396 13.5992C20.7602 13.0004 20.9825 12.1682 20.9825 11.2084H19.761ZM18.0712 13.2647C17.471 13.2647 17.0951 13.0825 16.8563 12.8023C16.6034 12.5056 16.422 12.0028 16.422 11.2084H15.2004C15.2004 12.1648 15.4161 12.9956 15.9266 13.5947C16.4513 14.2103 17.2054 14.4862 18.0712 14.4862V13.2647ZM16.422 11.2084V5.97605H15.2004V11.2084H16.422ZM26.5858 7.03474H25.975V8.39966L26.9928 7.49017L26.5858 7.03474ZM26.5858 1.02875H27.1966V0.417969H26.5858V1.02875ZM24.6517 1.02875V0.417969H24.0409V1.02875H24.6517ZM25.5068 13.7126L24.9789 14.0197L24.9803 14.0219L25.5068 13.7126ZM33.2637 14.3234L32.8318 13.8915L33.2637 14.3234ZM33.2637 7.17725L32.8318 7.60913L33.2637 7.17725ZM29.6804 8.25629C31.0913 8.25629 32.1439 9.28317 32.1439 10.7605H33.3655C33.3655 8.61384 31.7713 7.03474 29.6804 7.03474V8.25629ZM32.1439 10.7605C32.1439 11.5357 31.8837 12.1483 31.4708 12.5651C31.0585 12.9812 30.4525 13.2443 29.6804 13.2443V14.4659C30.7409 14.4659 31.672 14.0978 32.3387 13.4248C33.0049 12.7523 33.3655 11.8176 33.3655 10.7605H32.1439ZM29.6804 13.2443C28.929 13.2443 28.3241 12.986 27.9094 12.5793C27.4957 12.1733 27.2373 11.5862 27.2373 10.8623H26.0158C26.0158 11.8892 26.3887 12.7986 27.0539 13.4512C27.7184 14.1032 28.6405 14.4659 29.6804 14.4659V13.2443ZM27.2373 10.8623C27.2373 9.28224 28.2903 8.25629 29.6804 8.25629V7.03474C27.5688 7.03474 26.0158 8.6555 26.0158 10.8623H27.2373ZM27.1966 7.03474V1.02875H25.975V7.03474H27.1966ZM26.5858 0.417969H24.6517V1.63953H26.5858V0.417969ZM24.0409 1.02875V9.11138H25.2625V1.02875H24.0409ZM24.0409 9.11138C24.0409 11.1246 24.241 12.7515 24.9789 14.0197L26.0347 13.4054C25.4697 12.4341 25.2625 11.0886 25.2625 9.11138H24.0409ZM24.9803 14.0219C25.8673 15.5325 27.6229 16.4 29.6804 16.4V15.1784C27.9513 15.1784 26.653 14.458 26.0335 13.4033L24.9803 14.0219ZM29.6804 16.4C31.1799 16.4 32.6197 15.8311 33.6957 14.7552L32.8318 13.8915C31.9939 14.7294 30.8686 15.1784 29.6804 15.1784V16.4ZM33.6957 14.7552C34.7715 13.6794 35.3403 12.2395 35.3403 10.7401H34.1188C34.1188 11.9282 33.6698 13.0535 32.8318 13.8915L33.6957 14.7552ZM35.3403 10.7401C35.3403 9.23816 34.7696 7.8194 33.6957 6.74537L32.8318 7.60913C33.6717 8.44887 34.1188 9.55466 34.1188 10.7401H35.3403ZM33.6957 6.74537C32.6409 5.6906 31.3641 5.18204 29.884 5.18204V6.4036C31.0508 6.4036 32.0136 6.79085 32.8318 7.60913L33.6957 6.74537ZM29.884 5.18204C28.479 5.18204 27.2532 5.61934 26.1788 6.5793L26.9928 7.49017C27.8324 6.73995 28.7645 6.4036 29.884 6.4036V5.18204ZM36.5867 15.5449H35.9759V16.1557H36.5867V15.5449ZM38.5208 15.5449V16.1557H39.1316V15.5449H38.5208ZM38.5208 11.1066L38.5312 10.4959L37.9101 10.4854V11.1066H38.5208ZM42.1244 15.5449H41.5137V16.1557H42.1244V15.5449ZM44.0789 15.5449V16.1557H44.6897V15.5449H44.0789ZM40.9843 9.88503L40.5055 9.50592L39.9596 10.1955L40.7964 10.4661L40.9843 9.88503ZM44.0789 5.97605L44.5578 6.35516L45.3416 5.36527H44.0789V5.97605ZM41.7172 5.97605V5.36527H41.4194L41.236 5.60008L41.7172 5.97605ZM38.5208 10.0683H37.9101V11.8424L39.0021 10.4442L38.5208 10.0683ZM38.5208 1.02875H39.1316V0.417969H38.5208V1.02875ZM36.5867 1.02875V0.417969H35.9759V1.02875H36.5867ZM36.5867 16.1557H38.5208V14.9341H36.5867V16.1557ZM39.1316 15.5449V11.1066H37.9101V15.5449H39.1316ZM38.5105 11.7173C39.6035 11.7358 40.3251 12.0421 40.7823 12.5437C41.2476 13.0538 41.534 13.8684 41.534 15.097H42.7556C42.7556 13.6993 42.4312 12.539 41.6851 11.7206C40.9312 10.8939 39.8405 10.5181 38.5312 10.4959L38.5105 11.7173ZM41.534 15.097C41.534 15.1432 41.5308 15.1923 41.5253 15.2713C41.5204 15.3441 41.5137 15.4398 41.5137 15.5449H42.7352C42.7352 15.4871 42.7389 15.4301 42.744 15.3553C42.7486 15.2868 42.7556 15.1934 42.7556 15.097H41.534ZM42.1244 16.1557H44.0789V14.9341H42.1244V16.1557ZM44.6897 15.5449C44.6897 15.5447 44.6897 15.5444 44.6897 15.5442C44.6897 15.544 44.6897 15.5437 44.6897 15.5435C44.6897 15.5432 44.6897 15.543 44.6897 15.5428C44.6897 15.5425 44.6897 15.5423 44.6897 15.5421C44.6897 15.5418 44.6897 15.5416 44.6897 15.5414C44.6897 15.5411 44.6897 15.5409 44.6897 15.5406C44.6897 15.5404 44.6897 15.5402 44.6897 15.5399C44.6897 15.5397 44.6897 15.5394 44.6897 15.5392C44.6897 15.539 44.6897 15.5387 44.6897 15.5385C44.6897 15.5383 44.6897 15.538 44.6897 15.5378C44.6897 15.5375 44.6897 15.5373 44.6897 15.5371C44.6897 15.5368 44.6897 15.5366 44.6897 15.5364C44.6897 15.5361 44.6897 15.5359 44.6897 15.5357C44.6897 15.5354 44.6897 15.5352 44.6897 15.5349C44.6897 15.5347 44.6897 15.5345 44.6897 15.5342C44.6897 15.534 44.6897 15.5338 44.6897 15.5335C44.6897 15.5333 44.6897 15.533 44.6897 15.5328C44.6897 15.5326 44.6897 15.5323 44.6897 15.5321C44.6897 15.5319 44.6897 15.5316 44.6897 15.5314C44.6897 15.5312 44.6897 15.5309 44.6897 15.5307C44.6897 15.5305 44.6897 15.5302 44.6897 15.53C44.6897 15.5297 44.6897 15.5295 44.6897 15.5293C44.6897 15.529 44.6897 15.5288 44.6897 15.5286C44.6897 15.5283 44.6897 15.5281 44.6897 15.5279C44.6897 15.5276 44.6897 15.5274 44.6897 15.5272C44.6897 15.5269 44.6897 15.5267 44.6897 15.5265C44.6897 15.5262 44.6897 15.526 44.6897 15.5258C44.6897 15.5255 44.6897 15.5253 44.6897 15.525C44.6897 15.5248 44.6897 15.5246 44.6897 15.5244C44.6897 15.5241 44.6897 15.5239 44.6897 15.5236C44.6897 15.5234 44.6897 15.5232 44.6897 15.5229C44.6897 15.5227 44.6897 15.5225 44.6897 15.5222C44.6897 15.522 44.6897 15.5218 44.6897 15.5215C44.6897 15.5213 44.6897 15.5211 44.6897 15.5208C44.6897 15.5206 44.6897 15.5204 44.6897 15.5201C44.6897 15.5199 44.6897 15.5197 44.6897 15.5194C44.6897 15.5192 44.6897 15.519 44.6897 15.5187C44.6897 15.5185 44.6897 15.5183 44.6897 15.518C44.6897 15.5178 44.6897 15.5176 44.6897 15.5173C44.6897 15.5171 44.6897 15.5169 44.6897 15.5166C44.6897 15.5164 44.6897 15.5162 44.6897 15.5159C44.6897 15.5157 44.6897 15.5155 44.6897 15.5153C44.6897 15.515 44.6897 15.5148 44.6897 15.5145C44.6897 15.5143 44.6897 15.5141 44.6897 15.5138C44.6897 15.5136 44.6897 15.5134 44.6897 15.5132C44.6897 15.5129 44.6897 15.5127 44.6897 15.5125C44.6897 15.5122 44.6897 15.512 44.6897 15.5118C44.6897 15.5115 44.6897 15.5113 44.6897 15.5111C44.6897 15.5108 44.6897 15.5106 44.6897 15.5104C44.6897 15.5101 44.6897 15.5099 44.6897 15.5097C44.6897 15.5094 44.6897 15.5092 44.6897 15.509C44.6897 15.5087 44.6897 15.5085 44.6897 15.5083C44.6897 15.508 44.6897 15.5078 44.6897 15.5076C44.6897 15.5074 44.6897 15.5071 44.6897 15.5069C44.6897 15.5067 44.6897 15.5064 44.6897 15.5062C44.6897 15.506 44.6897 15.5057 44.6897 15.5055C44.6897 15.5053 44.6897 15.5051 44.6897 15.5048C44.6897 15.5046 44.6897 15.5044 44.6897 15.5041C44.6897 15.5039 44.6897 15.5037 44.6897 15.5034C44.6897 15.5032 44.6897 15.503 44.6897 15.5028C44.6897 15.5025 44.6897 15.5023 44.6897 15.5021C44.6897 15.5018 44.6897 15.5016 44.6897 15.5014C44.6897 15.5011 44.6897 15.5009 44.6897 15.5007C44.6897 15.5005 44.6897 15.5002 44.6897 15.5C44.6897 15.4998 44.6897 15.4995 44.6897 15.4993C44.6897 15.4991 44.6897 15.4988 44.6897 15.4986C44.6897 15.4984 44.6897 15.4981 44.6897 15.4979C44.6897 15.4977 44.6897 15.4975 44.6897 15.4972C44.6897 15.497 44.6897 15.4968 44.6897 15.4965C44.6897 15.4963 44.6897 15.4961 44.6897 15.4959C44.6897 15.4956 44.6897 15.4954 44.6897 15.4952C44.6897 15.4949 44.6897 15.4947 44.6897 15.4945C44.6897 15.4942 44.6897 15.494 44.6897 15.4938C44.6897 15.4936 44.6897 15.4933 44.6897 15.4931C44.6897 15.4929 44.6897 15.4927 44.6897 15.4924C44.6897 15.4922 44.6897 15.492 44.6897 15.4917C44.6897 15.4915 44.6897 15.4913 44.6897 15.491C44.6897 15.4908 44.6897 15.4906 44.6897 15.4904C44.6897 15.4901 44.6897 15.4899 44.6897 15.4897C44.6897 15.4895 44.6897 15.4892 44.6897 15.489C44.6897 15.4888 44.6897 15.4885 44.6897 15.4883C44.6897 15.4881 44.6897 15.4878 44.6897 15.4876C44.6897 15.4874 44.6897 15.4872 44.6897 15.4869C44.6897 15.4867 44.6897 15.4865 44.6897 15.4863C44.6897 15.486 44.6897 15.4858 44.6897 15.4856C44.6897 15.4853 44.6897 15.4851 44.6897 15.4849C44.6897 15.4847 44.6897 15.4844 44.6897 15.4842C44.6897 15.484 44.6897 15.4838 44.6897 15.4835C44.6897 15.4833 44.6897 15.4831 44.6897 15.4828C44.6897 15.4826 44.6897 15.4824 44.6897 15.4822C44.6897 15.4819 44.6897 15.4817 44.6897 15.4815C44.6897 15.4813 44.6897 15.481 44.6897 15.4808C44.6897 15.4806 44.6897 15.4804 44.6897 15.4801C44.6897 15.4799 44.6897 15.4797 44.6897 15.4794C44.6897 15.4792 44.6897 15.479 44.6897 15.4788C44.6897 15.4785 44.6897 15.4783 44.6897 15.4781C44.6897 15.4779 44.6897 15.4776 44.6897 15.4774C44.6897 15.4772 44.6897 15.477 44.6897 15.4767C44.6897 15.4765 44.6897 15.4763 44.6897 15.476C44.6897 15.4758 44.6897 15.4756 44.6897 15.4754C44.6897 15.4751 44.6897 15.4749 44.6897 15.4747C44.6897 15.4745 44.6897 15.4742 44.6897 15.474C44.6897 15.4738 44.6897 15.4736 44.6897 15.4733C44.6897 15.4731 44.6897 15.4729 44.6897 15.4727C44.6897 15.4724 44.6897 15.4722 44.6897 15.472C44.6897 15.4717 44.6897 15.4715 44.6897 15.4713C44.6897 15.4711 44.6897 15.4708 44.6897 15.4706C44.6897 15.4704 44.6897 15.4702 44.6897 15.47C44.6897 15.4697 44.6897 15.4695 44.6897 15.4693C44.6897 15.4691 44.6897 15.4688 44.6897 15.4686C44.6897 15.4684 44.6897 15.4681 44.6897 15.4679C44.6897 15.4677 44.6897 15.4675 44.6897 15.4672C44.6897 15.467 44.6897 15.4668 44.6897 15.4666C44.6897 15.4663 44.6897 15.4661 44.6897 15.4659C44.6897 15.4657 44.6897 15.4655 44.6897 15.4652C44.6897 15.465 44.6897 15.4648 44.6897 15.4646C44.6897 15.4643 44.6897 15.4641 44.6897 15.4639C44.6897 15.4636 44.6897 15.4634 44.6897 15.4632C44.6897 15.463 44.6897 15.4627 44.6897 15.4625C44.6897 15.4623 44.6897 15.4621 44.6897 15.4618C44.6897 15.4616 44.6897 15.4614 44.6897 15.4612C44.6897 15.461 44.6897 15.4607 44.6897 15.4605C44.6897 15.4603 44.6897 15.4601 44.6897 15.4598C44.6897 15.4596 44.6897 15.4594 44.6897 15.4592C44.6897 15.4589 44.6897 15.4587 44.6897 15.4585C44.6897 15.4583 44.6897 15.458 44.6897 15.4578C44.6897 15.4576 44.6897 15.4574 44.6897 15.4571C44.6897 15.4569 44.6897 15.4567 44.6897 15.4565C44.6897 15.4563 44.6897 15.456 44.6897 15.4558C44.6897 15.4556 44.6897 15.4554 44.6897 15.4551C44.6897 15.4549 44.6897 15.4547 44.6897 15.4545C44.6897 15.4542 44.6897 15.454 44.6897 15.4538C44.6897 15.4536 44.6897 15.4534 44.6897 15.4531C44.6897 15.4529 44.6897 15.4527 44.6897 15.4525C44.6897 15.4522 44.6897 15.452 44.6897 15.4518C44.6897 15.4516 44.6897 15.4513 44.6897 15.4511C44.6897 15.4509 44.6897 15.4507 44.6897 15.4504C44.6897 15.4502 44.6897 15.45 44.6897 15.4498C44.6897 15.4496 44.6897 15.4493 44.6897 15.4491C44.6897 15.4489 44.6897 15.4487 44.6897 15.4485C44.6897 15.4482 44.6897 15.448 44.6897 15.4478C44.6897 15.4476 44.6897 15.4473 44.6897 15.4471C44.6897 15.4469 44.6897 15.4467 44.6897 15.4464C44.6897 15.4462 44.6897 15.446 44.6897 15.4458C44.6897 15.4455 44.6897 15.4453 44.6897 15.4451C44.6897 15.4449 44.6897 15.4447 44.6897 15.4444C44.6897 15.4442 44.6897 15.444 44.6897 15.4438C44.6897 15.4435 44.6897 15.4433 44.6897 15.4431C44.6897 15.4429 44.6897 15.4427 44.6897 15.4424C44.6897 15.4422 44.6897 15.442 44.6897 15.4418C44.6897 15.4416 44.6897 15.4413 44.6897 15.4411C44.6897 15.4409 44.6897 15.4407 44.6897 15.4404C44.6897 15.4402 44.6897 15.44 44.6897 15.4398C44.6897 15.4396 44.6897 15.4393 44.6897 15.4391C44.6897 15.4389 44.6897 15.4387 44.6897 15.4384C44.6897 15.4382 44.6897 15.438 44.6897 15.4378C44.6897 15.4376 44.6897 15.4373 44.6897 15.4371C44.6897 15.4369 44.6897 15.4367 44.6897 15.4364C44.6897 15.4362 44.6897 15.436 44.6897 15.4358C44.6897 15.4356 44.6897 15.4353 44.6897 15.4351C44.6897 15.4349 44.6897 15.4347 44.6897 15.4344C44.6897 15.4342 44.6897 15.434 44.6897 15.4338C44.6897 15.4336 44.6897 15.4333 44.6897 15.4331C44.6897 15.4329 44.6897 15.4327 44.6897 15.4325C44.6897 15.4322 44.6897 15.432 44.6897 15.4318C44.6897 15.4316 44.6897 15.4314 44.6897 15.4311C44.6897 15.4309 44.6897 15.4307 44.6897 15.4305C44.6897 15.4303 44.6897 15.43 44.6897 15.4298C44.6897 15.4296 44.6897 15.4294 44.6897 15.4292C44.6897 15.4289 44.6897 15.4287 44.6897 15.4285C44.6897 15.4283 44.6897 15.428 44.6897 15.4278C44.6897 15.4276 44.6897 15.4274 44.6897 15.4272C44.6897 15.4269 44.6897 15.4267 44.6897 15.4265C44.6897 15.4263 44.6897 15.4261 44.6897 15.4258C44.6897 15.4256 44.6897 15.4254 44.6897 15.4252C44.6897 15.4249 44.6897 15.4247 44.6897 15.4245C44.6897 15.4243 44.6897 15.4241 44.6897 15.4238C44.6897 15.4236 44.6897 15.4234 44.6897 15.4232C44.6897 15.423 44.6897 15.4227 44.6897 15.4225C44.6897 15.4223 44.6897 15.4221 44.6897 15.4219C44.6897 15.4216 44.6897 15.4214 44.6897 15.4212C44.6897 15.421 44.6897 15.4208 44.6897 15.4205C44.6897 15.4203 44.6897 15.4201 44.6897 15.4199C44.6897 15.4197 44.6897 15.4194 44.6897 15.4192C44.6897 15.419 44.6897 15.4188 44.6897 15.4185C44.6897 15.4183 44.6897 15.4181 44.6897 15.4179C44.6897 15.4177 44.6897 15.4174 44.6897 15.4172C44.6897 15.417 44.6897 15.4168 44.6897 15.4166C44.6897 15.4163 44.6897 15.4161 44.6897 15.4159C44.6897 15.4157 44.6897 15.4155 44.6897 15.4152C44.6897 15.415 44.6897 15.4148 44.6897 15.4146C44.6897 15.4144 44.6897 15.4141 44.6897 15.4139C44.6897 15.4137 44.6897 15.4135 44.6897 15.4133C44.6897 15.413 44.6897 15.4128 44.6897 15.4126C44.6897 15.4124 44.6897 15.4122 44.6897 15.4119C44.6897 15.4117 44.6897 15.4115 44.6897 15.4113C44.6897 15.4111 44.6897 15.4108 44.6897 15.4106C44.6897 15.4104 44.6897 15.4102 44.6897 15.41C44.6897 15.4097 44.6897 15.4095 44.6897 15.4093C44.6897 15.4091 44.6897 15.4089 44.6897 15.4087C44.6897 15.4084 44.6897 15.4082 44.6897 15.408C44.6897 15.4078 44.6897 15.4076 44.6897 15.4073C44.6897 15.4071 44.6897 15.4069 44.6897 15.4067C44.6897 15.4065 44.6897 15.4062 44.6897 15.406C44.6897 15.4058 44.6897 15.4056 44.6897 15.4054C44.6897 15.4051 44.6897 15.4049 44.6897 15.4047C44.6897 15.4045 44.6897 15.4043 44.6897 15.404C44.6897 15.4038 44.6897 15.4036 44.6897 15.4034C44.6897 15.4032 44.6897 15.4029 44.6897 15.4027C44.6897 15.4025 44.6897 15.4023 44.6897 15.4021C44.6897 15.4019 44.6897 15.4016 44.6897 15.4014C44.6897 15.4012 44.6897 15.401 44.6897 15.4008C44.6897 15.4005 44.6897 15.4003 44.6897 15.4001C44.6897 15.3999 44.6897 15.3997 44.6897 15.3994C44.6897 15.3992 44.6897 15.399 44.6897 15.3988C44.6897 15.3986 44.6897 15.3983 44.6897 15.3981C44.6897 15.3979 44.6897 15.3977 44.6897 15.3975C44.6897 15.3973 44.6897 15.397 44.6897 15.3968C44.6897 15.3966 44.6897 15.3964 44.6897 15.3962C44.6897 15.3959 44.6897 15.3957 44.6897 15.3955C44.6897 15.3953 44.6897 15.3951 44.6897 15.3948C44.6897 15.3946 44.6897 15.3944 44.6897 15.3942C44.6897 15.394 44.6897 15.3937 44.6897 15.3935C44.6897 15.3933 44.6897 15.3931 44.6897 15.3929C44.6897 15.3926 44.6897 15.3924 44.6897 15.3922C44.6897 15.392 44.6897 15.3918 44.6897 15.3915C44.6897 15.3913 44.6897 15.3911 44.6897 15.3909C44.6897 15.3907 44.6897 15.3904 44.6897 15.3902C44.6897 15.39 44.6897 15.3898 44.6897 15.3896C44.6897 15.3894 44.6897 15.3891 44.6897 15.3889C44.6897 15.3887 44.6897 15.3885 44.6897 15.3883C44.6897 15.388 44.6897 15.3878 44.6897 15.3876C44.6897 15.3874 44.6897 15.3872 44.6897 15.3869C44.6897 15.3867 44.6897 15.3865 44.6897 15.3863C44.6897 15.3861 44.6897 15.3859 44.6897 15.3856C44.6897 15.3854 44.6897 15.3852 44.6897 15.385C44.6897 15.3848 44.6897 15.3845 44.6897 15.3843C44.6897 15.3841 44.6897 15.3839 44.6897 15.3837C44.6897 15.3834 44.6897 15.3832 44.6897 15.383C44.6897 15.3828 44.6897 15.3826 44.6897 15.3824C44.6897 15.3821 44.6897 15.3819 44.6897 15.3817C44.6897 15.3815 44.6897 15.3813 44.6897 15.381C44.6897 15.3808 44.6897 15.3806 44.6897 15.3804C44.6897 15.3802 44.6897 15.3799 44.6897 15.3797C44.6897 15.3795 44.6897 15.3793 44.6897 15.3791C44.6897 15.3789 44.6897 15.3786 44.6897 15.3784C44.6897 15.3782 44.6897 15.378 44.6897 15.3778C44.6897 15.3775 44.6897 15.3773 44.6897 15.3771C44.6897 15.3769 44.6897 15.3767 44.6897 15.3765C44.6897 15.3762 44.6897 15.376 44.6897 15.3758C44.6897 15.3756 44.6897 15.3754 44.6897 15.3751C44.6897 15.3749 44.6897 15.3747 44.6897 15.3745C44.6897 15.3743 44.6897 15.374 44.6897 15.3738C44.6897 15.3736 44.6897 15.3734 44.6897 15.3732C44.6897 15.373 44.6897 15.3727 44.6897 15.3725C44.6897 15.3723 44.6897 15.3721 44.6897 15.3719C44.6897 15.3716 44.6897 15.3714 44.6897 15.3712C44.6897 15.371 44.6897 15.3708 44.6897 15.3706C44.6897 15.3703 44.6897 15.3701 44.6897 15.3699C44.6897 15.3697 44.6897 15.3695 44.6897 15.3692C44.6897 15.369 44.6897 15.3688 44.6897 15.3686C44.6897 15.3684 44.6897 15.3681 44.6897 15.3679C44.6897 15.3677 44.6897 15.3675 44.6897 15.3673C44.6897 15.3671 44.6897 15.3668 44.6897 15.3666C44.6897 15.3664 44.6897 15.3662 44.6897 15.366C44.6897 15.3657 44.6897 15.3655 44.6897 15.3653C44.6897 15.3651 44.6897 15.3649 44.6897 15.3646C44.6897 15.3644 44.6897 15.3642 44.6897 15.364C44.6897 15.3638 44.6897 15.3636 44.6897 15.3633C44.6897 15.3631 44.6897 15.3629 44.6897 15.3627C44.6897 15.3625 44.6897 15.3622 44.6897 15.362C44.6897 15.3618 44.6897 15.3616 44.6897 15.3614C44.6897 15.3612 44.6897 15.3609 44.6897 15.3607C44.6897 15.3605 44.6897 15.3603 44.6897 15.3601C44.6897 15.3598 44.6897 15.3596 44.6897 15.3594C44.6897 15.3592 44.6897 15.359 44.6897 15.3587C44.6897 15.3585 44.6897 15.3583 44.6897 15.3581C44.6897 15.3579 44.6897 15.3577 44.6897 15.3574C44.6897 15.3572 44.6897 15.357 44.6897 15.3568C44.6897 15.3566 44.6897 15.3563 44.6897 15.3561C44.6897 15.3559 44.6897 15.3557 44.6897 15.3555C44.6897 15.3552 44.6897 15.355 44.6897 15.3548C44.6897 15.3546 44.6897 15.3544 44.6897 15.3541C44.6897 15.3539 44.6897 15.3537 44.6897 15.3535C44.6897 15.3533 44.6897 15.3531 44.6897 15.3528C44.6897 15.3526 44.6897 15.3524 44.6897 15.3522C44.6897 15.352 44.6897 15.3517 44.6897 15.3515C44.6897 15.3513 44.6897 15.3511 44.6897 15.3509C44.6897 15.3506 44.6897 15.3504 44.6897 15.3502C44.6897 15.35 44.6897 15.3497 44.6897 15.3495C44.6897 15.3493 44.6897 15.3491 44.6897 15.3489C44.6897 15.3487 44.6897 15.3484 44.6897 15.3482C44.6897 15.348 44.6897 15.3478 44.6897 15.3476C44.6897 15.3474 44.6897 15.3471 44.6897 15.3469C44.6897 15.3467 44.6897 15.3465 44.6897 15.3463C44.6897 15.346 44.6897 15.3458 44.6897 15.3456C44.6897 15.3454 44.6897 15.3451 44.6897 15.3449C44.6897 15.3447 44.6897 15.3445 44.6897 15.3443C44.6897 15.3441 44.6897 15.3438 44.6897 15.3436C44.6897 15.3434 44.6897 15.3432 44.6897 15.343C44.6897 15.3427 44.6897 15.3425 44.6897 15.3423C44.6897 15.3421 44.6897 15.3419 44.6897 15.3416C44.6897 15.3414 44.6897 15.3412 44.6897 15.341C44.6897 15.3408 44.6897 15.3406 44.6897 15.3403C44.6897 15.3401 44.6897 15.3399 44.6897 15.3397C44.6897 15.3394 44.6897 15.3392 44.6897 15.339C44.6897 15.3388 44.6897 15.3386 44.6897 15.3384C44.6897 15.3381 44.6897 15.3379 44.6897 15.3377C44.6897 15.3375 44.6897 15.3373 44.6897 15.337C44.6897 15.3368 44.6897 15.3366 44.6897 15.3364C44.6897 15.3362 44.6897 15.3359 44.6897 15.3357C44.6897 15.3355 44.6897 15.3353 44.6897 15.3351C44.6897 15.3348 44.6897 15.3346 44.6897 15.3344C44.6897 15.3342 44.6897 15.334 44.6897 15.3337C44.6897 15.3335 44.6897 15.3333 44.6897 15.3331C44.6897 15.3329 44.6897 15.3327 44.6897 15.3324C44.6897 15.3322 44.6897 15.332 44.6897 15.3318C44.6897 15.3315 44.6897 15.3313 44.6897 15.3311C44.6897 15.3309 44.6897 15.3307 44.6897 15.3305C44.6897 15.3302 44.6897 15.33 44.6897 15.3298C44.6897 15.3296 44.6897 15.3294 44.6897 15.3291C44.6897 15.3289 44.6897 15.3287 44.6897 15.3285C44.6897 15.3283 44.6897 15.328 44.6897 15.3278C44.6897 15.3276 44.6897 15.3274 44.6897 15.3272C44.6897 15.3269 44.6897 15.3267 44.6897 15.3265C44.6897 15.3263 44.6897 15.3261 44.6897 15.3258C44.6897 15.3256 44.6897 15.3254 44.6897 15.3252C44.6897 15.325 44.6897 15.3247 44.6897 15.3245C44.6897 15.3243 44.6897 15.3241 44.6897 15.3239C44.6897 15.3236 44.6897 15.3234 44.6897 15.3232C44.6897 15.323 44.6897 15.3228 44.6897 15.3225C44.6897 15.3223 44.6897 15.3221 44.6897 15.3219C44.6897 15.3216 44.6897 15.3214 44.6897 15.3212C44.6897 15.321 44.6897 15.3208 44.6897 15.3205C44.6897 15.3203 44.6897 15.3201 44.6897 15.3199C44.6897 15.3197 44.6897 15.3194 44.6897 15.3192C44.6897 15.319 44.6897 15.3188 44.6897 15.3186C44.6897 15.3183 44.6897 15.3181 44.6897 15.3179C44.6897 15.3177 44.6897 15.3175 44.6897 15.3172C44.6897 15.317 44.6897 15.3168 44.6897 15.3166C44.6897 15.3163 44.6897 15.3161 44.6897 15.3159C44.6897 15.3157 44.6897 15.3155 44.6897 15.3152C44.6897 15.315 44.6897 15.3148 44.6897 15.3146C44.6897 15.3144 44.6897 15.3141 44.6897 15.3139C44.6897 15.3137 44.6897 15.3135 44.6897 15.3132C44.6897 15.313 44.6897 15.3128 44.6897 15.3126C44.6897 15.3124 44.6897 15.3121 44.6897 15.3119C44.6897 15.3117 44.6897 15.3115 44.6897 15.3113C44.6897 15.311 44.6897 15.3108 44.6897 15.3106C44.6897 15.3104 44.6897 15.3102 44.6897 15.3099C44.6897 15.3097 44.6897 15.3095 44.6897 15.3093C44.6897 15.3091 44.6897 15.3088 44.6897 15.3086C44.6897 15.3084 44.6897 15.3082 44.6897 15.3079C44.6897 15.3077 44.6897 15.3075 44.6897 15.3073C44.6897 15.3071 44.6897 15.3068 44.6897 15.3066C44.6897 15.3064 44.6897 15.3062 44.6897 15.3059C44.6897 15.3057 44.6897 15.3055 44.6897 15.3053C44.6897 15.3051 44.6897 15.3048 44.6897 15.3046C44.6897 15.3044 44.6897 15.3042 44.6897 15.3039C44.6897 15.3037 44.6897 15.3035 44.6897 15.3033C44.6897 15.3031 44.6897 15.3028 44.6897 15.3026C44.6897 15.3024 44.6897 15.3022 44.6897 15.3019C44.6897 15.3017 44.6897 15.3015 44.6897 15.3013C44.6897 15.3011 44.6897 15.3008 44.6897 15.3006C44.6897 15.3004 44.6897 15.3002 44.6897 15.3C44.6897 15.2997 44.6897 15.2995 44.6897 15.2993C44.6897 15.2991 44.6897 15.2988 44.6897 15.2986C44.6897 15.2984 44.6897 15.2982 44.6897 15.298C44.6897 15.2977 44.6897 15.2975 44.6897 15.2973C44.6897 15.2971 44.6897 15.2968 44.6897 15.2966C44.6897 15.2964 44.6897 15.2962 44.6897 15.2959C44.6897 15.2957 44.6897 15.2955 44.6897 15.2953C44.6897 15.2951 44.6897 15.2948 44.6897 15.2946C44.6897 15.2944 44.6897 15.2942 44.6897 15.2939C44.6897 15.2937 44.6897 15.2935 44.6897 15.2933C44.6897 15.293 44.6897 15.2928 44.6897 15.2926C44.6897 15.2924 44.6897 15.2922 44.6897 15.2919C44.6897 15.2917 44.6897 15.2915 44.6897 15.2913C44.6897 15.291 44.6897 15.2908 44.6897 15.2906C44.6897 15.2904 44.6897 15.2901 44.6897 15.2899C44.6897 15.2897 44.6897 15.2895 44.6897 15.2893C44.6897 15.289 44.6897 15.2888 44.6897 15.2886C44.6897 15.2884 44.6897 15.2881 44.6897 15.2879C44.6897 15.2877 44.6897 15.2875 44.6897 15.2872C44.6897 15.287 44.6897 15.2868 44.6897 15.2866C44.6897 15.2864 44.6897 15.2861 44.6897 15.2859C44.6897 15.2857 44.6897 15.2855 44.6897 15.2852C44.6897 15.285 44.6897 15.2848 44.6897 15.2846C44.6897 15.2843 44.6897 15.2841 44.6897 15.2839C44.6897 15.2837 44.6897 15.2834 44.6897 15.2832C44.6897 15.283 44.6897 15.2828 44.6897 15.2825C44.6897 15.2823 44.6897 15.2821 44.6897 15.2819C44.6897 15.2816 44.6897 15.2814 44.6897 15.2812C44.6897 15.281 44.6897 15.2808 44.6897 15.2805C44.6897 15.2803 44.6897 15.2801 44.6897 15.2798C44.6897 15.2796 44.6897 15.2794 44.6897 15.2792C44.6897 15.2789 44.6897 15.2787 44.6897 15.2785C44.6897 15.2783 44.6897 15.278 44.6897 15.2778C44.6897 15.2776 44.6897 15.2774 44.6897 15.2772C44.6897 15.2769 44.6897 15.2767 44.6897 15.2765C44.6897 15.2763 44.6897 15.276 44.6897 15.2758C44.6897 15.2756 44.6897 15.2754 44.6897 15.2751C44.6897 15.2749 44.6897 15.2747 44.6897 15.2744C44.6897 15.2742 44.6897 15.274 44.6897 15.2738C44.6897 15.2735 44.6897 15.2733 44.6897 15.2731C44.6897 15.2729 44.6897 15.2726 44.6897 15.2724C44.6897 15.2722 44.6897 15.272 44.6897 15.2717C44.6897 15.2715 44.6897 15.2713 44.6897 15.2711C44.6897 15.2708 44.6897 15.2706 44.6897 15.2704C44.6897 15.2702 44.6897 15.2699 44.6897 15.2697C44.6897 15.2695 44.6897 15.2693 44.6897 15.269C44.6897 15.2688 44.6897 15.2686 44.6897 15.2684C44.6897 15.2681 44.6897 15.2679 44.6897 15.2677C44.6897 15.2675 44.6897 15.2672 44.6897 15.267C44.6897 15.2668 44.6897 15.2665 44.6897 15.2663C44.6897 15.2661 44.6897 15.2659 44.6897 15.2656C44.6897 15.2654 44.6897 15.2652 44.6897 15.265C44.6897 15.2647 44.6897 15.2645 44.6897 15.2643C44.6897 15.2641 44.6897 15.2638 44.6897 15.2636C44.6897 15.2634 44.6897 15.2631 44.6897 15.2629C44.6897 15.2627 44.6897 15.2625 44.6897 15.2622C44.6897 15.262 44.6897 15.2618 44.6897 15.2616C44.6897 15.2613 44.6897 15.2611 44.6897 15.2609C44.6897 15.2607 44.6897 15.2604 44.6897 15.2602C44.6897 15.26 44.6897 15.2597 44.6897 15.2595C44.6897 15.2593 44.6897 15.2591 44.6897 15.2588C44.6897 15.2586 44.6897 15.2584 44.6897 15.2582C44.6897 15.2579 44.6897 15.2577 44.6897 15.2575C44.6897 15.2572 44.6897 15.257 44.6897 15.2568C44.6897 15.2565 44.6897 15.2563 44.6897 15.2561C44.6897 15.2559 44.6897 15.2557 44.6897 15.2554C44.6897 15.2552 44.6897 15.255 44.6897 15.2547C44.6897 15.2545 44.6897 15.2543 44.6897 15.254C44.6897 15.2538 44.6897 15.2536 44.6897 15.2534C44.6897 15.2531 44.6897 15.2529 44.6897 15.2527C44.6897 15.2525 44.6897 15.2522 44.6897 15.252C44.6897 15.2518 44.6897 15.2515 44.6897 15.2513C44.6897 15.2511 44.6897 15.2508 44.6897 15.2506C44.6897 15.2504 44.6897 15.2502 44.6897 15.2499C44.6897 15.2497 44.6897 15.2495 44.6897 15.2492C44.6897 15.249 44.6897 15.2488 44.6897 15.2486C44.6897 15.2483 44.6897 15.2481 44.6897 15.2479C44.6897 15.2477 44.6897 15.2474 44.6897 15.2472C44.6897 15.247 44.6897 15.2467 44.6897 15.2465C44.6897 15.2463 44.6897 15.246 44.6897 15.2458C44.6897 15.2456 44.6897 15.2453 44.6897 15.2451C44.6897 15.2449 44.6897 15.2447 44.6897 15.2444C44.6897 15.2442 44.6897 15.244 44.6897 15.2437C44.6897 15.2435 44.6897 15.2433 44.6897 15.243C44.6897 15.2428 44.6897 15.2426 44.6897 15.2424C44.6897 15.2421 44.6897 15.2419 44.6897 15.2417C44.6897 15.2414 44.6897 15.2412 44.6897 15.241C44.6897 15.2407 44.6897 15.2405 44.6897 15.2403C44.6897 15.2401 44.6897 15.2398 44.6897 15.2396C44.6897 15.2394 44.6897 15.2391 44.6897 15.2389C44.6897 15.2387 44.6897 15.2384 44.6897 15.2382C44.6897 15.238 44.6897 15.2378 44.6897 15.2375C44.6897 15.2373 44.6897 15.2371 44.6897 15.2368C44.6897 15.2366 44.6897 15.2364 44.6897 15.2361C44.6897 15.2359 44.6897 15.2357 44.6897 15.2354C44.6897 15.2352 44.6897 15.235 44.6897 15.2347C44.6897 15.2345 44.6897 15.2343 44.6897 15.234C44.6897 15.2338 44.6897 15.2336 44.6897 15.2334C44.6897 15.2331 44.6897 15.2329 44.6897 15.2327C44.6897 15.2324 44.6897 15.2322 44.6897 15.232C44.6897 15.2317 44.6897 15.2315 44.6897 15.2313C44.6897 15.231 44.6897 15.2308 44.6897 15.2306C44.6897 15.2303 44.6897 15.2301 44.6897 15.2299C44.6897 15.2297 44.6897 15.2294 44.6897 15.2292C44.6897 15.2289 44.6897 15.2287 44.6897 15.2285C44.6897 15.2282 44.6897 15.228 44.6897 15.2278C44.6897 15.2276 44.6897 15.2273 44.6897 15.2271C44.6897 15.2268 44.6897 15.2266 44.6897 15.2264C44.6897 15.2262 44.6897 15.2259 44.6897 15.2257C44.6897 15.2255 44.6897 15.2252 44.6897 15.225C44.6897 15.2247 44.6897 15.2245 44.6897 15.2243C44.6897 15.2241 44.6897 15.2238 44.6897 15.2236C44.6897 15.2234 44.6897 15.2231 44.6897 15.2229C44.6897 15.2226 44.6897 15.2224 44.6897 15.2222C44.6897 15.222 44.6897 15.2217 44.6897 15.2215C44.6897 15.2212 44.6897 15.221 44.6897 15.2208C44.6897 15.2206 44.6897 15.2203 44.6897 15.2201C44.6897 15.2198 44.6897 15.2196 44.6897 15.2194C44.6897 15.2191 44.6897 15.2189 44.6897 15.2187C44.6897 15.2184 44.6897 15.2182 44.6897 15.218C44.6897 15.2177 44.6897 15.2175 44.6897 15.2173C44.6897 15.217 44.6897 15.2168 44.6897 15.2166C44.6897 15.2163 44.6897 15.2161 44.6897 15.2158C44.6897 15.2156 44.6897 15.2154 44.6897 15.2152C44.6897 15.2149 44.6897 15.2147 44.6897 15.2144C44.6897 15.2142 44.6897 15.214 44.6897 15.2137C44.6897 15.2135 44.6897 15.2133 44.6897 15.213C44.6897 15.2128 44.6897 15.2126 44.6897 15.2123C44.6897 15.2121 44.6897 15.2119 44.6897 15.2116C44.6897 15.2114 44.6897 15.2111 44.6897 15.2109C44.6897 15.2107 44.6897 15.2104 44.6897 15.2102C44.6897 15.21 44.6897 15.2097 44.6897 15.2095C44.6897 15.2093 44.6897 15.209 44.6897 15.2088C44.6897 15.2085 44.6897 15.2083 44.6897 15.2081C44.6897 15.2078 44.6897 15.2076 44.6897 15.2074C44.6897 15.2071 44.6897 15.2069 44.6897 15.2066C44.6897 15.2064 44.6897 15.2062 44.6897 15.2059C44.6897 15.2057 44.6897 15.2055 44.6897 15.2052C44.6897 15.205 44.6897 15.2048 44.6897 15.2045C44.6897 15.2043 44.6897 15.204 44.6897 15.2038C44.6897 15.2036 44.6897 15.2033 44.6897 15.2031C44.6897 15.2029 44.6897 15.2026 44.6897 15.2024C44.6897 15.2021 44.6897 15.2019 44.6897 15.2017C44.6897 15.2014 44.6897 15.2012 44.6897 15.2009C44.6897 15.2007 44.6897 15.2005 44.6897 15.2002C44.6897 15.2 44.6897 15.1998 44.6897 15.1995C44.6897 15.1993 44.6897 15.1991 44.6897 15.1988H43.4681C43.4681 15.1991 43.4681 15.1993 43.4681 15.1995C43.4681 15.1998 43.4681 15.2 43.4681 15.2002C43.4681 15.2005 43.4681 15.2007 43.4681 15.2009C43.4681 15.2012 43.4681 15.2014 43.4681 15.2017C43.4681 15.2019 43.4681 15.2021 43.4681 15.2024C43.4681 15.2026 43.4681 15.2029 43.4681 15.2031C43.4681 15.2033 43.4681 15.2036 43.4681 15.2038C43.4681 15.204 43.4681 15.2043 43.4681 15.2045C43.4681 15.2048 43.4681 15.205 43.4681 15.2052C43.4681 15.2055 43.4681 15.2057 43.4681 15.2059C43.4681 15.2062 43.4681 15.2064 43.4681 15.2066C43.4681 15.2069 43.4681 15.2071 43.4681 15.2074C43.4681 15.2076 43.4681 15.2078 43.4681 15.2081C43.4681 15.2083 43.4681 15.2085 43.4681 15.2088C43.4681 15.209 43.4681 15.2093 43.4681 15.2095C43.4681 15.2097 43.4681 15.21 43.4681 15.2102C43.4681 15.2104 43.4681 15.2107 43.4681 15.2109C43.4681 15.2111 43.4681 15.2114 43.4681 15.2116C43.4681 15.2119 43.4681 15.2121 43.4681 15.2123C43.4681 15.2126 43.4681 15.2128 43.4681 15.213C43.4681 15.2133 43.4681 15.2135 43.4681 15.2137C43.4681 15.214 43.4681 15.2142 43.4681 15.2144C43.4681 15.2147 43.4681 15.2149 43.4681 15.2152C43.4681 15.2154 43.4681 15.2156 43.4681 15.2158C43.4681 15.2161 43.4681 15.2163 43.4681 15.2166C43.4681 15.2168 43.4681 15.217 43.4681 15.2173C43.4681 15.2175 43.4681 15.2177 43.4681 15.218C43.4681 15.2182 43.4681 15.2184 43.4681 15.2187C43.4681 15.2189 43.4681 15.2191 43.4681 15.2194C43.4681 15.2196 43.4681 15.2198 43.4681 15.2201C43.4681 15.2203 43.4681 15.2206 43.4681 15.2208C43.4681 15.221 43.4681 15.2212 43.4681 15.2215C43.4681 15.2217 43.4681 15.222 43.4681 15.2222C43.4681 15.2224 43.4681 15.2226 43.4681 15.2229C43.4681 15.2231 43.4681 15.2234 43.4681 15.2236C43.4681 15.2238 43.4681 15.2241 43.4681 15.2243C43.4681 15.2245 43.4681 15.2247 43.4681 15.225C43.4681 15.2252 43.4681 15.2255 43.4681 15.2257C43.4681 15.2259 43.4681 15.2262 43.4681 15.2264C43.4681 15.2266 43.4681 15.2268 43.4681 15.2271C43.4681 15.2273 43.4681 15.2276 43.4681 15.2278C43.4681 15.228 43.4681 15.2282 43.4681 15.2285C43.4681 15.2287 43.4681 15.2289 43.4681 15.2292C43.4681 15.2294 43.4681 15.2297 43.4681 15.2299C43.4681 15.2301 43.4681 15.2303 43.4681 15.2306C43.4681 15.2308 43.4681 15.231 43.4681 15.2313C43.4681 15.2315 43.4681 15.2317 43.4681 15.232C43.4681 15.2322 43.4681 15.2324 43.4681 15.2327C43.4681 15.2329 43.4681 15.2331 43.4681 15.2334C43.4681 15.2336 43.4681 15.2338 43.4681 15.234C43.4681 15.2343 43.4681 15.2345 43.4681 15.2347C43.4681 15.235 43.4681 15.2352 43.4681 15.2354C43.4681 15.2357 43.4681 15.2359 43.4681 15.2361C43.4681 15.2364 43.4681 15.2366 43.4681 15.2368C43.4681 15.2371 43.4681 15.2373 43.4681 15.2375C43.4681 15.2378 43.4681 15.238 43.4681 15.2382C43.4681 15.2384 43.4681 15.2387 43.4681 15.2389C43.4681 15.2391 43.4681 15.2394 43.4681 15.2396C43.4681 15.2398 43.4681 15.2401 43.4681 15.2403C43.4681 15.2405 43.4681 15.2407 43.4681 15.241C43.4681 15.2412 43.4681 15.2414 43.4681 15.2417C43.4681 15.2419 43.4681 15.2421 43.4681 15.2424C43.4681 15.2426 43.4681 15.2428 43.4681 15.243C43.4681 15.2433 43.4681 15.2435 43.4681 15.2437C43.4681 15.244 43.4681 15.2442 43.4681 15.2444C43.4681 15.2447 43.4681 15.2449 43.4681 15.2451C43.4681 15.2453 43.4681 15.2456 43.4681 15.2458C43.4681 15.246 43.4681 15.2463 43.4681 15.2465C43.4681 15.2467 43.4681 15.247 43.4681 15.2472C43.4681 15.2474 43.4681 15.2477 43.4681 15.2479C43.4681 15.2481 43.4681 15.2483 43.4681 15.2486C43.4681 15.2488 43.4681 15.249 43.4681 15.2492C43.4681 15.2495 43.4681 15.2497 43.4681 15.2499C43.4681 15.2502 43.4681 15.2504 43.4681 15.2506C43.4681 15.2508 43.4681 15.2511 43.4681 15.2513C43.4681 15.2515 43.4681 15.2518 43.4681 15.252C43.4681 15.2522 43.4681 15.2525 43.4681 15.2527C43.4681 15.2529 43.4681 15.2531 43.4681 15.2534C43.4681 15.2536 43.4681 15.2538 43.4681 15.254C43.4681 15.2543 43.4681 15.2545 43.4681 15.2547C43.4681 15.255 43.4681 15.2552 43.4681 15.2554C43.4681 15.2557 43.4681 15.2559 43.4681 15.2561C43.4681 15.2563 43.4681 15.2565 43.4681 15.2568C43.4681 15.257 43.4681 15.2572 43.4681 15.2575C43.4681 15.2577 43.4681 15.2579 43.4681 15.2582C43.4681 15.2584 43.4681 15.2586 43.4681 15.2588C43.4681 15.2591 43.4681 15.2593 43.4681 15.2595C43.4681 15.2597 43.4681 15.26 43.4681 15.2602C43.4681 15.2604 43.4681 15.2607 43.4681 15.2609C43.4681 15.2611 43.4681 15.2613 43.4681 15.2616C43.4681 15.2618 43.4681 15.262 43.4681 15.2622C43.4681 15.2625 43.4681 15.2627 43.4681 15.2629C43.4681 15.2631 43.4681 15.2634 43.4681 15.2636C43.4681 15.2638 43.4681 15.2641 43.4681 15.2643C43.4681 15.2645 43.4681 15.2647 43.4681 15.265C43.4681 15.2652 43.4681 15.2654 43.4681 15.2656C43.4681 15.2659 43.4681 15.2661 43.4681 15.2663C43.4681 15.2665 43.4681 15.2668 43.4681 15.267C43.4681 15.2672 43.4681 15.2675 43.4681 15.2677C43.4681 15.2679 43.4681 15.2681 43.4681 15.2684C43.4681 15.2686 43.4681 15.2688 43.4681 15.269C43.4681 15.2693 43.4681 15.2695 43.4681 15.2697C43.4681 15.2699 43.4681 15.2702 43.4681 15.2704C43.4681 15.2706 43.4681 15.2708 43.4681 15.2711C43.4681 15.2713 43.4681 15.2715 43.4681 15.2717C43.4681 15.272 43.4681 15.2722 43.4681 15.2724C43.4681 15.2726 43.4681 15.2729 43.4681 15.2731C43.4681 15.2733 43.4681 15.2735 43.4681 15.2738C43.4681 15.274 43.4681 15.2742 43.4681 15.2744C43.4681 15.2747 43.4681 15.2749 43.4681 15.2751C43.4681 15.2754 43.4681 15.2756 43.4681 15.2758C43.4681 15.276 43.4681 15.2763 43.4681 15.2765C43.4681 15.2767 43.4681 15.2769 43.4681 15.2772C43.4681 15.2774 43.4681 15.2776 43.4681 15.2778C43.4681 15.278 43.4681 15.2783 43.4681 15.2785C43.4681 15.2787 43.4681 15.2789 43.4681 15.2792C43.4681 15.2794 43.4681 15.2796 43.4681 15.2798C43.4681 15.2801 43.4681 15.2803 43.4681 15.2805C43.4681 15.2808 43.4681 15.281 43.4681 15.2812C43.4681 15.2814 43.4681 15.2816 43.4681 15.2819C43.4681 15.2821 43.4681 15.2823 43.4681 15.2825C43.4681 15.2828 43.4681 15.283 43.4681 15.2832C43.4681 15.2834 43.4681 15.2837 43.4681 15.2839C43.4681 15.2841 43.4681 15.2843 43.4681 15.2846C43.4681 15.2848 43.4681 15.285 43.4681 15.2852C43.4681 15.2855 43.4681 15.2857 43.4681 15.2859C43.4681 15.2861 43.4681 15.2864 43.4681 15.2866C43.4681 15.2868 43.4681 15.287 43.4681 15.2872C43.4681 15.2875 43.4681 15.2877 43.4681 15.2879C43.4681 15.2881 43.4681 15.2884 43.4681 15.2886C43.4681 15.2888 43.4681 15.289 43.4681 15.2893C43.4681 15.2895 43.4681 15.2897 43.4681 15.2899C43.4681 15.2901 43.4681 15.2904 43.4681 15.2906C43.4681 15.2908 43.4681 15.291 43.4681 15.2913C43.4681 15.2915 43.4681 15.2917 43.4681 15.2919C43.4681 15.2922 43.4681 15.2924 43.4681 15.2926C43.4681 15.2928 43.4681 15.293 43.4681 15.2933C43.4681 15.2935 43.4681 15.2937 43.4681 15.2939C43.4681 15.2942 43.4681 15.2944 43.4681 15.2946C43.4681 15.2948 43.4681 15.2951 43.4681 15.2953C43.4681 15.2955 43.4681 15.2957 43.4681 15.2959C43.4681 15.2962 43.4681 15.2964 43.4681 15.2966C43.4681 15.2968 43.4681 15.2971 43.4681 15.2973C43.4681 15.2975 43.4681 15.2977 43.4681 15.298C43.4681 15.2982 43.4681 15.2984 43.4681 15.2986C43.4681 15.2988 43.4681 15.2991 43.4681 15.2993C43.4681 15.2995 43.4681 15.2997 43.4681 15.3C43.4681 15.3002 43.4681 15.3004 43.4681 15.3006C43.4681 15.3008 43.4681 15.3011 43.4681 15.3013C43.4681 15.3015 43.4681 15.3017 43.4681 15.3019C43.4681 15.3022 43.4681 15.3024 43.4681 15.3026C43.4681 15.3028 43.4681 15.3031 43.4681 15.3033C43.4681 15.3035 43.4681 15.3037 43.4681 15.3039C43.4681 15.3042 43.4681 15.3044 43.4681 15.3046C43.4681 15.3048 43.4681 15.3051 43.4681 15.3053C43.4681 15.3055 43.4681 15.3057 43.4681 15.3059C43.4681 15.3062 43.4681 15.3064 43.4681 15.3066C43.4681 15.3068 43.4681 15.3071 43.4681 15.3073C43.4681 15.3075 43.4681 15.3077 43.4681 15.3079C43.4681 15.3082 43.4681 15.3084 43.4681 15.3086C43.4681 15.3088 43.4681 15.3091 43.4681 15.3093C43.4681 15.3095 43.4681 15.3097 43.4681 15.3099C43.4681 15.3102 43.4681 15.3104 43.4681 15.3106C43.4681 15.3108 43.4681 15.311 43.4681 15.3113C43.4681 15.3115 43.4681 15.3117 43.4681 15.3119C43.4681 15.3121 43.4681 15.3124 43.4681 15.3126C43.4681 15.3128 43.4681 15.313 43.4681 15.3132C43.4681 15.3135 43.4681 15.3137 43.4681 15.3139C43.4681 15.3141 43.4681 15.3144 43.4681 15.3146C43.4681 15.3148 43.4681 15.315 43.4681 15.3152C43.4681 15.3155 43.4681 15.3157 43.4681 15.3159C43.4681 15.3161 43.4681 15.3163 43.4681 15.3166C43.4681 15.3168 43.4681 15.317 43.4681 15.3172C43.4681 15.3175 43.4681 15.3177 43.4681 15.3179C43.4681 15.3181 43.4681 15.3183 43.4681 15.3186C43.4681 15.3188 43.4681 15.319 43.4681 15.3192C43.4681 15.3194 43.4681 15.3197 43.4681 15.3199C43.4681 15.3201 43.4681 15.3203 43.4681 15.3205C43.4681 15.3208 43.4681 15.321 43.4681 15.3212C43.4681 15.3214 43.4681 15.3216 43.4681 15.3219C43.4681 15.3221 43.4681 15.3223 43.4681 15.3225C43.4681 15.3228 43.4681 15.323 43.4681 15.3232C43.4681 15.3234 43.4681 15.3236 43.4681 15.3239C43.4681 15.3241 43.4681 15.3243 43.4681 15.3245C43.4681 15.3247 43.4681 15.325 43.4681 15.3252C43.4681 15.3254 43.4681 15.3256 43.4681 15.3258C43.4681 15.3261 43.4681 15.3263 43.4681 15.3265C43.4681 15.3267 43.4681 15.3269 43.4681 15.3272C43.4681 15.3274 43.4681 15.3276 43.4681 15.3278C43.4681 15.328 43.4681 15.3283 43.4681 15.3285C43.4681 15.3287 43.4681 15.3289 43.4681 15.3291C43.4681 15.3294 43.4681 15.3296 43.4681 15.3298C43.4681 15.33 43.4681 15.3302 43.4681 15.3305C43.4681 15.3307 43.4681 15.3309 43.4681 15.3311C43.4681 15.3313 43.4681 15.3315 43.4681 15.3318C43.4681 15.332 43.4681 15.3322 43.4681 15.3324C43.4681 15.3327 43.4681 15.3329 43.4681 15.3331C43.4681 15.3333 43.4681 15.3335 43.4681 15.3337C43.4681 15.334 43.4681 15.3342 43.4681 15.3344C43.4681 15.3346 43.4681 15.3348 43.4681 15.3351C43.4681 15.3353 43.4681 15.3355 43.4681 15.3357C43.4681 15.3359 43.4681 15.3362 43.4681 15.3364C43.4681 15.3366 43.4681 15.3368 43.4681 15.337C43.4681 15.3373 43.4681 15.3375 43.4681 15.3377C43.4681 15.3379 43.4681 15.3381 43.4681 15.3384C43.4681 15.3386 43.4681 15.3388 43.4681 15.339C43.4681 15.3392 43.4681 15.3394 43.4681 15.3397C43.4681 15.3399 43.4681 15.3401 43.4681 15.3403C43.4681 15.3406 43.4681 15.3408 43.4681 15.341C43.4681 15.3412 43.4681 15.3414 43.4681 15.3416C43.4681 15.3419 43.4681 15.3421 43.4681 15.3423C43.4681 15.3425 43.4681 15.3427 43.4681 15.343C43.4681 15.3432 43.4681 15.3434 43.4681 15.3436C43.4681 15.3438 43.4681 15.3441 43.4681 15.3443C43.4681 15.3445 43.4681 15.3447 43.4681 15.3449C43.4681 15.3451 43.4681 15.3454 43.4681 15.3456C43.4681 15.3458 43.4681 15.346 43.4681 15.3463C43.4681 15.3465 43.4681 15.3467 43.4681 15.3469C43.4681 15.3471 43.4681 15.3474 43.4681 15.3476C43.4681 15.3478 43.4681 15.348 43.4681 15.3482C43.4681 15.3484 43.4681 15.3487 43.4681 15.3489C43.4681 15.3491 43.4681 15.3493 43.4681 15.3495C43.4681 15.3497 43.4681 15.35 43.4681 15.3502C43.4681 15.3504 43.4681 15.3506 43.4681 15.3509C43.4681 15.3511 43.4681 15.3513 43.4681 15.3515C43.4681 15.3517 43.4681 15.352 43.4681 15.3522C43.4681 15.3524 43.4681 15.3526 43.4681 15.3528C43.4681 15.3531 43.4681 15.3533 43.4681 15.3535C43.4681 15.3537 43.4681 15.3539 43.4681 15.3541C43.4681 15.3544 43.4681 15.3546 43.4681 15.3548C43.4681 15.355 43.4681 15.3552 43.4681 15.3555C43.4681 15.3557 43.4681 15.3559 43.4681 15.3561C43.4681 15.3563 43.4681 15.3566 43.4681 15.3568C43.4681 15.357 43.4681 15.3572 43.4681 15.3574C43.4681 15.3577 43.4681 15.3579 43.4681 15.3581C43.4681 15.3583 43.4681 15.3585 43.4681 15.3587C43.4681 15.359 43.4681 15.3592 43.4681 15.3594C43.4681 15.3596 43.4681 15.3598 43.4681 15.3601C43.4681 15.3603 43.4681 15.3605 43.4681 15.3607C43.4681 15.3609 43.4681 15.3612 43.4681 15.3614C43.4681 15.3616 43.4681 15.3618 43.4681 15.362C43.4681 15.3622 43.4681 15.3625 43.4681 15.3627C43.4681 15.3629 43.4681 15.3631 43.4681 15.3633C43.4681 15.3636 43.4681 15.3638 43.4681 15.364C43.4681 15.3642 43.4681 15.3644 43.4681 15.3646C43.4681 15.3649 43.4681 15.3651 43.4681 15.3653C43.4681 15.3655 43.4681 15.3657 43.4681 15.366C43.4681 15.3662 43.4681 15.3664 43.4681 15.3666C43.4681 15.3668 43.4681 15.3671 43.4681 15.3673C43.4681 15.3675 43.4681 15.3677 43.4681 15.3679C43.4681 15.3681 43.4681 15.3684 43.4681 15.3686C43.4681 15.3688 43.4681 15.369 43.4681 15.3692C43.4681 15.3695 43.4681 15.3697 43.4681 15.3699C43.4681 15.3701 43.4681 15.3703 43.4681 15.3706C43.4681 15.3708 43.4681 15.371 43.4681 15.3712C43.4681 15.3714 43.4681 15.3716 43.4681 15.3719C43.4681 15.3721 43.4681 15.3723 43.4681 15.3725C43.4681 15.3727 43.4681 15.373 43.4681 15.3732C43.4681 15.3734 43.4681 15.3736 43.4681 15.3738C43.4681 15.374 43.4681 15.3743 43.4681 15.3745C43.4681 15.3747 43.4681 15.3749 43.4681 15.3751C43.4681 15.3754 43.4681 15.3756 43.4681 15.3758C43.4681 15.376 43.4681 15.3762 43.4681 15.3765C43.4681 15.3767 43.4681 15.3769 43.4681 15.3771C43.4681 15.3773 43.4681 15.3775 43.4681 15.3778C43.4681 15.378 43.4681 15.3782 43.4681 15.3784C43.4681 15.3786 43.4681 15.3789 43.4681 15.3791C43.4681 15.3793 43.4681 15.3795 43.4681 15.3797C43.4681 15.3799 43.4681 15.3802 43.4681 15.3804C43.4681 15.3806 43.4681 15.3808 43.4681 15.381C43.4681 15.3813 43.4681 15.3815 43.4681 15.3817C43.4681 15.3819 43.4681 15.3821 43.4681 15.3824C43.4681 15.3826 43.4681 15.3828 43.4681 15.383C43.4681 15.3832 43.4681 15.3834 43.4681 15.3837C43.4681 15.3839 43.4681 15.3841 43.4681 15.3843C43.4681 15.3845 43.4681 15.3848 43.4681 15.385C43.4681 15.3852 43.4681 15.3854 43.4681 15.3856C43.4681 15.3859 43.4681 15.3861 43.4681 15.3863C43.4681 15.3865 43.4681 15.3867 43.4681 15.3869C43.4681 15.3872 43.4681 15.3874 43.4681 15.3876C43.4681 15.3878 43.4681 15.388 43.4681 15.3883C43.4681 15.3885 43.4681 15.3887 43.4681 15.3889C43.4681 15.3891 43.4681 15.3894 43.4681 15.3896C43.4681 15.3898 43.4681 15.39 43.4681 15.3902C43.4681 15.3904 43.4681 15.3907 43.4681 15.3909C43.4681 15.3911 43.4681 15.3913 43.4681 15.3915C43.4681 15.3918 43.4681 15.392 43.4681 15.3922C43.4681 15.3924 43.4681 15.3926 43.4681 15.3929C43.4681 15.3931 43.4681 15.3933 43.4681 15.3935C43.4681 15.3937 43.4681 15.394 43.4681 15.3942C43.4681 15.3944 43.4681 15.3946 43.4681 15.3948C43.4681 15.3951 43.4681 15.3953 43.4681 15.3955C43.4681 15.3957 43.4681 15.3959 43.4681 15.3962C43.4681 15.3964 43.4681 15.3966 43.4681 15.3968C43.4681 15.397 43.4681 15.3973 43.4681 15.3975C43.4681 15.3977 43.4681 15.3979 43.4681 15.3981C43.4681 15.3983 43.4681 15.3986 43.4681 15.3988C43.4681 15.399 43.4681 15.3992 43.4681 15.3994C43.4681 15.3997 43.4681 15.3999 43.4681 15.4001C43.4681 15.4003 43.4681 15.4005 43.4681 15.4008C43.4681 15.401 43.4681 15.4012 43.4681 15.4014C43.4681 15.4016 43.4681 15.4019 43.4681 15.4021C43.4681 15.4023 43.4681 15.4025 43.4681 15.4027C43.4681 15.4029 43.4681 15.4032 43.4681 15.4034C43.4681 15.4036 43.4681 15.4038 43.4681 15.404C43.4681 15.4043 43.4681 15.4045 43.4681 15.4047C43.4681 15.4049 43.4681 15.4051 43.4681 15.4054C43.4681 15.4056 43.4681 15.4058 43.4681 15.406C43.4681 15.4062 43.4681 15.4065 43.4681 15.4067C43.4681 15.4069 43.4681 15.4071 43.4681 15.4073C43.4681 15.4076 43.4681 15.4078 43.4681 15.408C43.4681 15.4082 43.4681 15.4084 43.4681 15.4087C43.4681 15.4089 43.4681 15.4091 43.4681 15.4093C43.4681 15.4095 43.4681 15.4097 43.4681 15.41C43.4681 15.4102 43.4681 15.4104 43.4681 15.4106C43.4681 15.4108 43.4681 15.4111 43.4681 15.4113C43.4681 15.4115 43.4681 15.4117 43.4681 15.4119C43.4681 15.4122 43.4681 15.4124 43.4681 15.4126C43.4681 15.4128 43.4681 15.413 43.4681 15.4133C43.4681 15.4135 43.4681 15.4137 43.4681 15.4139C43.4681 15.4141 43.4681 15.4144 43.4681 15.4146C43.4681 15.4148 43.4681 15.415 43.4681 15.4152C43.4681 15.4155 43.4681 15.4157 43.4681 15.4159C43.4681 15.4161 43.4681 15.4163 43.4681 15.4166C43.4681 15.4168 43.4681 15.417 43.4681 15.4172C43.4681 15.4174 43.4681 15.4177 43.4681 15.4179C43.4681 15.4181 43.4681 15.4183 43.4681 15.4185C43.4681 15.4188 43.4681 15.419 43.4681 15.4192C43.4681 15.4194 43.4681 15.4197 43.4681 15.4199C43.4681 15.4201 43.4681 15.4203 43.4681 15.4205C43.4681 15.4208 43.4681 15.421 43.4681 15.4212C43.4681 15.4214 43.4681 15.4216 43.4681 15.4219C43.4681 15.4221 43.4681 15.4223 43.4681 15.4225C43.4681 15.4227 43.4681 15.423 43.4681 15.4232C43.4681 15.4234 43.4681 15.4236 43.4681 15.4238C43.4681 15.4241 43.4681 15.4243 43.4681 15.4245C43.4681 15.4247 43.4681 15.4249 43.4681 15.4252C43.4681 15.4254 43.4681 15.4256 43.4681 15.4258C43.4681 15.4261 43.4681 15.4263 43.4681 15.4265C43.4681 15.4267 43.4681 15.4269 43.4681 15.4272C43.4681 15.4274 43.4681 15.4276 43.4681 15.4278C43.4681 15.428 43.4681 15.4283 43.4681 15.4285C43.4681 15.4287 43.4681 15.4289 43.4681 15.4292C43.4681 15.4294 43.4681 15.4296 43.4681 15.4298C43.4681 15.43 43.4681 15.4303 43.4681 15.4305C43.4681 15.4307 43.4681 15.4309 43.4681 15.4311C43.4681 15.4314 43.4681 15.4316 43.4681 15.4318C43.4681 15.432 43.4681 15.4322 43.4681 15.4325C43.4681 15.4327 43.4681 15.4329 43.4681 15.4331C43.4681 15.4333 43.4681 15.4336 43.4681 15.4338C43.4681 15.434 43.4681 15.4342 43.4681 15.4344C43.4681 15.4347 43.4681 15.4349 43.4681 15.4351C43.4681 15.4353 43.4681 15.4356 43.4681 15.4358C43.4681 15.436 43.4681 15.4362 43.4681 15.4364C43.4681 15.4367 43.4681 15.4369 43.4681 15.4371C43.4681 15.4373 43.4681 15.4376 43.4681 15.4378C43.4681 15.438 43.4681 15.4382 43.4681 15.4384C43.4681 15.4387 43.4681 15.4389 43.4681 15.4391C43.4681 15.4393 43.4681 15.4396 43.4681 15.4398C43.4681 15.44 43.4681 15.4402 43.4681 15.4404C43.4681 15.4407 43.4681 15.4409 43.4681 15.4411C43.4681 15.4413 43.4681 15.4416 43.4681 15.4418C43.4681 15.442 43.4681 15.4422 43.4681 15.4424C43.4681 15.4427 43.4681 15.4429 43.4681 15.4431C43.4681 15.4433 43.4681 15.4435 43.4681 15.4438C43.4681 15.444 43.4681 15.4442 43.4681 15.4444C43.4681 15.4447 43.4681 15.4449 43.4681 15.4451C43.4681 15.4453 43.4681 15.4455 43.4681 15.4458C43.4681 15.446 43.4681 15.4462 43.4681 15.4464C43.4681 15.4467 43.4681 15.4469 43.4681 15.4471C43.4681 15.4473 43.4681 15.4476 43.4681 15.4478C43.4681 15.448 43.4681 15.4482 43.4681 15.4485C43.4681 15.4487 43.4681 15.4489 43.4681 15.4491C43.4681 15.4493 43.4681 15.4496 43.4681 15.4498C43.4681 15.45 43.4681 15.4502 43.4681 15.4504C43.4681 15.4507 43.4681 15.4509 43.4681 15.4511C43.4681 15.4513 43.4681 15.4516 43.4681 15.4518C43.4681 15.452 43.4681 15.4522 43.4681 15.4525C43.4681 15.4527 43.4681 15.4529 43.4681 15.4531C43.4681 15.4534 43.4681 15.4536 43.4681 15.4538C43.4681 15.454 43.4681 15.4542 43.4681 15.4545C43.4681 15.4547 43.4681 15.4549 43.4681 15.4551C43.4681 15.4554 43.4681 15.4556 43.4681 15.4558C43.4681 15.456 43.4681 15.4563 43.4681 15.4565C43.4681 15.4567 43.4681 15.4569 43.4681 15.4571C43.4681 15.4574 43.4681 15.4576 43.4681 15.4578C43.4681 15.458 43.4681 15.4583 43.4681 15.4585C43.4681 15.4587 43.4681 15.4589 43.4681 15.4592C43.4681 15.4594 43.4681 15.4596 43.4681 15.4598C43.4681 15.4601 43.4681 15.4603 43.4681 15.4605C43.4681 15.4607 43.4681 15.461 43.4681 15.4612C43.4681 15.4614 43.4681 15.4616 43.4681 15.4618C43.4681 15.4621 43.4681 15.4623 43.4681 15.4625C43.4681 15.4627 43.4681 15.463 43.4681 15.4632C43.4681 15.4634 43.4681 15.4636 43.4681 15.4639C43.4681 15.4641 43.4681 15.4643 43.4681 15.4646C43.4681 15.4648 43.4681 15.465 43.4681 15.4652C43.4681 15.4655 43.4681 15.4657 43.4681 15.4659C43.4681 15.4661 43.4681 15.4663 43.4681 15.4666C43.4681 15.4668 43.4681 15.467 43.4681 15.4672C43.4681 15.4675 43.4681 15.4677 43.4681 15.4679C43.4681 15.4681 43.4681 15.4684 43.4681 15.4686C43.4681 15.4688 43.4681 15.4691 43.4681 15.4693C43.4681 15.4695 43.4681 15.4697 43.4681 15.47C43.4681 15.4702 43.4681 15.4704 43.4681 15.4706C43.4681 15.4708 43.4681 15.4711 43.4681 15.4713C43.4681 15.4715 43.4681 15.4717 43.4681 15.472C43.4681 15.4722 43.4681 15.4724 43.4681 15.4727C43.4681 15.4729 43.4681 15.4731 43.4681 15.4733C43.4681 15.4736 43.4681 15.4738 43.4681 15.474C43.4681 15.4742 43.4681 15.4745 43.4681 15.4747C43.4681 15.4749 43.4681 15.4751 43.4681 15.4754C43.4681 15.4756 43.4681 15.4758 43.4681 15.476C43.4681 15.4763 43.4681 15.4765 43.4681 15.4767C43.4681 15.477 43.4681 15.4772 43.4681 15.4774C43.4681 15.4776 43.4681 15.4779 43.4681 15.4781C43.4681 15.4783 43.4681 15.4785 43.4681 15.4788C43.4681 15.479 43.4681 15.4792 43.4681 15.4794C43.4681 15.4797 43.4681 15.4799 43.4681 15.4801C43.4681 15.4804 43.4681 15.4806 43.4681 15.4808C43.4681 15.481 43.4681 15.4813 43.4681 15.4815C43.4681 15.4817 43.4681 15.4819 43.4681 15.4822C43.4681 15.4824 43.4681 15.4826 43.4681 15.4828C43.4681 15.4831 43.4681 15.4833 43.4681 15.4835C43.4681 15.4838 43.4681 15.484 43.4681 15.4842C43.4681 15.4844 43.4681 15.4847 43.4681 15.4849C43.4681 15.4851 43.4681 15.4853 43.4681 15.4856C43.4681 15.4858 43.4681 15.486 43.4681 15.4863C43.4681 15.4865 43.4681 15.4867 43.4681 15.4869C43.4681 15.4872 43.4681 15.4874 43.4681 15.4876C43.4681 15.4878 43.4681 15.4881 43.4681 15.4883C43.4681 15.4885 43.4681 15.4888 43.4681 15.489C43.4681 15.4892 43.4681 15.4895 43.4681 15.4897C43.4681 15.4899 43.4681 15.4901 43.4681 15.4904C43.4681 15.4906 43.4681 15.4908 43.4681 15.491C43.4681 15.4913 43.4681 15.4915 43.4681 15.4917C43.4681 15.492 43.4681 15.4922 43.4681 15.4924C43.4681 15.4927 43.4681 15.4929 43.4681 15.4931C43.4681 15.4933 43.4681 15.4936 43.4681 15.4938C43.4681 15.494 43.4681 15.4942 43.4681 15.4945C43.4681 15.4947 43.4681 15.4949 43.4681 15.4952C43.4681 15.4954 43.4681 15.4956 43.4681 15.4959C43.4681 15.4961 43.4681 15.4963 43.4681 15.4965C43.4681 15.4968 43.4681 15.497 43.4681 15.4972C43.4681 15.4975 43.4681 15.4977 43.4681 15.4979C43.4681 15.4981 43.4681 15.4984 43.4681 15.4986C43.4681 15.4988 43.4681 15.4991 43.4681 15.4993C43.4681 15.4995 43.4681 15.4998 43.4681 15.5C43.4681 15.5002 43.4681 15.5005 43.4681 15.5007C43.4681 15.5009 43.4681 15.5011 43.4681 15.5014C43.4681 15.5016 43.4681 15.5018 43.4681 15.5021C43.4681 15.5023 43.4681 15.5025 43.4681 15.5028C43.4681 15.503 43.4681 15.5032 43.4681 15.5034C43.4681 15.5037 43.4681 15.5039 43.4681 15.5041C43.4681 15.5044 43.4681 15.5046 43.4681 15.5048C43.4681 15.5051 43.4681 15.5053 43.4681 15.5055C43.4681 15.5057 43.4681 15.506 43.4681 15.5062C43.4681 15.5064 43.4681 15.5067 43.4681 15.5069C43.4681 15.5071 43.4681 15.5074 43.4681 15.5076C43.4681 15.5078 43.4681 15.508 43.4681 15.5083C43.4681 15.5085 43.4681 15.5087 43.4681 15.509C43.4681 15.5092 43.4681 15.5094 43.4681 15.5097C43.4681 15.5099 43.4681 15.5101 43.4681 15.5104C43.4681 15.5106 43.4681 15.5108 43.4681 15.5111C43.4681 15.5113 43.4681 15.5115 43.4681 15.5118C43.4681 15.512 43.4681 15.5122 43.4681 15.5125C43.4681 15.5127 43.4681 15.5129 43.4681 15.5132C43.4681 15.5134 43.4681 15.5136 43.4681 15.5138C43.4681 15.5141 43.4681 15.5143 43.4681 15.5145C43.4681 15.5148 43.4681 15.515 43.4681 15.5153C43.4681 15.5155 43.4681 15.5157 43.4681 15.5159C43.4681 15.5162 43.4681 15.5164 43.4681 15.5166C43.4681 15.5169 43.4681 15.5171 43.4681 15.5173C43.4681 15.5176 43.4681 15.5178 43.4681 15.518C43.4681 15.5183 43.4681 15.5185 43.4681 15.5187C43.4681 15.519 43.4681 15.5192 43.4681 15.5194C43.4681 15.5197 43.4681 15.5199 43.4681 15.5201C43.4681 15.5204 43.4681 15.5206 43.4681 15.5208C43.4681 15.5211 43.4681 15.5213 43.4681 15.5215C43.4681 15.5218 43.4681 15.522 43.4681 15.5222C43.4681 15.5225 43.4681 15.5227 43.4681 15.5229C43.4681 15.5232 43.4681 15.5234 43.4681 15.5236C43.4681 15.5239 43.4681 15.5241 43.4681 15.5244C43.4681 15.5246 43.4681 15.5248 43.4681 15.525C43.4681 15.5253 43.4681 15.5255 43.4681 15.5258C43.4681 15.526 43.4681 15.5262 43.4681 15.5265C43.4681 15.5267 43.4681 15.5269 43.4681 15.5272C43.4681 15.5274 43.4681 15.5276 43.4681 15.5279C43.4681 15.5281 43.4681 15.5283 43.4681 15.5286C43.4681 15.5288 43.4681 15.529 43.4681 15.5293C43.4681 15.5295 43.4681 15.5297 43.4681 15.53C43.4681 15.5302 43.4681 15.5305 43.4681 15.5307C43.4681 15.5309 43.4681 15.5312 43.4681 15.5314C43.4681 15.5316 43.4681 15.5319 43.4681 15.5321C43.4681 15.5323 43.4681 15.5326 43.4681 15.5328C43.4681 15.533 43.4681 15.5333 43.4681 15.5335C43.4681 15.5338 43.4681 15.534 43.4681 15.5342C43.4681 15.5345 43.4681 15.5347 43.4681 15.5349C43.4681 15.5352 43.4681 15.5354 43.4681 15.5357C43.4681 15.5359 43.4681 15.5361 43.4681 15.5364C43.4681 15.5366 43.4681 15.5368 43.4681 15.5371C43.4681 15.5373 43.4681 15.5375 43.4681 15.5378C43.4681 15.538 43.4681 15.5383 43.4681 15.5385C43.4681 15.5387 43.4681 15.539 43.4681 15.5392C43.4681 15.5394 43.4681 15.5397 43.4681 15.5399C43.4681 15.5402 43.4681 15.5404 43.4681 15.5406C43.4681 15.5409 43.4681 15.5411 43.4681 15.5414C43.4681 15.5416 43.4681 15.5418 43.4681 15.5421C43.4681 15.5423 43.4681 15.5425 43.4681 15.5428C43.4681 15.543 43.4681 15.5432 43.4681 15.5435C43.4681 15.5437 43.4681 15.544 43.4681 15.5442C43.4681 15.5444 43.4681 15.5447 43.4681 15.5449H44.6897ZM44.6897 15.1988C44.6897 13.6884 44.4248 12.4101 43.8383 11.4025C43.2428 10.3795 42.3427 9.68252 41.1724 9.30392L40.7964 10.4661C41.7028 10.7594 42.3498 11.2738 42.7826 12.017C43.224 12.7755 43.4681 13.8182 43.4681 15.1988H44.6897ZM41.4632 10.2641L44.5578 6.35516L43.6001 5.59694L40.5055 9.50592L41.4632 10.2641ZM44.0789 5.36527H41.7172V6.58683H44.0789V5.36527ZM41.236 5.60008L38.0395 9.69229L39.0021 10.4442L42.1985 6.35203L41.236 5.60008ZM39.1316 10.0683V1.02875H37.9101V10.0683H39.1316ZM38.5208 0.417969H36.5867V1.63953H38.5208V0.417969ZM35.9759 1.02875V15.5449H37.1975V1.02875H35.9759ZM47.7617 5.97605H48.3725V5.36527H47.7617V5.97605ZM45.8072 5.97605V5.36527H45.1964V5.97605H45.8072ZM53.5234 14.2826L53.0413 13.9077L53.0403 13.9089L53.0392 13.9102L53.5234 14.2826ZM54.2767 5.97605H54.8875V5.36527H54.2767V5.97605ZM52.3222 5.97605V5.36527H51.7114V5.97605H52.3222ZM47.7617 5.36527H45.8072V6.58683H47.7617V5.36527ZM45.1964 5.97605V11.2491H46.418V5.97605H45.1964ZM45.1964 11.2491C45.1964 12.8467 45.5599 14.1595 46.4084 15.0725C47.2649 15.9943 48.5136 16.4 50.042 16.4V15.1784C48.72 15.1784 47.8515 14.8309 47.3032 14.241C46.7468 13.6423 46.418 12.685 46.418 11.2491H45.1964ZM50.042 16.4C51.7255 16.4 53.0484 15.9019 54.0075 14.655L53.0392 13.9102C52.3696 14.7807 51.4533 15.1784 50.042 15.1784V16.4ZM54.0055 14.6576C54.8581 13.5616 54.8875 12.4293 54.8875 11.2491H53.6659C53.6659 12.4306 53.614 13.1714 53.0413 13.9077L54.0055 14.6576ZM54.8875 11.2491V5.97605H53.6659V11.2491H54.8875ZM54.2767 5.36527H52.3222V6.58683H54.2767V5.36527ZM51.7114 5.97605V11.2084H52.933V5.97605H51.7114ZM51.7114 11.2084C51.7114 11.9995 51.5266 12.5008 51.2684 12.7978C51.0227 13.0805 50.635 13.2647 50.0216 13.2647V14.4862C50.8946 14.4862 51.6573 14.2123 52.1903 13.5992C52.7108 13.0004 52.933 12.1682 52.933 11.2084H51.7114ZM50.0216 13.2647C49.4214 13.2647 49.0456 13.0825 48.807 12.8023C48.5539 12.5056 48.3725 12.0028 48.3725 11.2084H47.1509C47.1509 12.1648 47.3665 12.9956 47.8771 13.5947C48.4018 14.2103 49.1559 14.4862 50.0216 14.4862V13.2647ZM48.3725 11.2084V5.97605H47.1509V11.2084H48.3725ZM56.0933 7.66587H55.4826V8.27665H56.0933V7.66587ZM57.0706 7.66587H57.6814V7.05509H57.0706V7.66587ZM61.2646 15.5449L61.2554 16.1556L61.8754 16.165V15.5449H61.2646ZM61.2646 13.5904H61.8754V13.0363L61.3238 12.9825L61.2646 13.5904ZM58.9844 7.66587V7.05509H58.3736V7.66587H58.9844ZM61.1424 7.66587V8.27665H61.7532V7.66587H61.1424ZM61.1424 5.97605H61.7532V5.36527H61.1424V5.97605ZM58.9844 5.97605H58.3736V6.58683H58.9844V5.97605ZM58.9844 3.71617H59.5951V3.10539H58.9844V3.71617ZM57.0706 3.71617V3.10539H56.4598V3.71617H57.0706ZM57.0706 5.97605V6.58683H57.6814V5.97605H57.0706ZM56.0933 5.97605V5.36527H55.4826V5.97605H56.0933ZM56.0933 8.27665H57.0706V7.05509H56.0933V8.27665ZM56.4598 7.66587V11.2491H57.6814V7.66587H56.4598ZM56.4598 11.2491C56.4598 12.7211 56.8623 13.9572 57.715 14.8313C58.5686 15.7063 59.7904 16.1336 61.2554 16.1556L61.2738 14.9342C60.031 14.9155 59.1558 14.559 58.5894 13.9783C58.022 13.3967 57.6814 12.5053 57.6814 11.2491H56.4598ZM61.8754 15.5449V13.5904H60.6538V15.5449H61.8754ZM61.3238 12.9825C60.5838 12.9103 60.2045 12.6944 59.9838 12.4054C59.7448 12.0922 59.5951 11.5702 59.5951 10.679H58.3736C58.3736 11.6609 58.5293 12.5132 59.0129 13.1467C59.5151 13.8044 60.2757 14.1076 61.2053 14.1983L61.3238 12.9825ZM59.5951 10.679V7.66587H58.3736V10.679H59.5951ZM58.9844 8.27665H61.1424V7.05509H58.9844V8.27665ZM61.7532 7.66587V5.97605H60.5317V7.66587H61.7532ZM61.1424 5.36527H58.9844V6.58683H61.1424V5.36527ZM59.5951 5.97605V3.71617H58.3736V5.97605H59.5951ZM58.9844 3.10539H57.0706V4.32695H58.9844V3.10539ZM56.4598 3.71617V5.97605H57.6814V3.71617H56.4598ZM57.0706 5.36527H56.0933V6.58683H57.0706V5.36527ZM55.4826 5.97605V7.66587H56.7041V5.97605H55.4826Z" fill="#ED2590"/>
</svg>
